<?xml version="1.0" encoding="utf-8"?>
<svg viewBox="-0.3964 1.7236 336.2413 89.6788" width="336.241" height="89.679" xmlns="http://www.w3.org/2000/svg">
  <defs>
    <filter id="539fc5df-97f9-4b43-ae21-f4f282223529" filterUnits="userSpaceOnUse">
      <feColorMatrix type="matrix" values="0 0 0 0 0.99609375  0 0 0 0 0.99609375  0 0 0 0 0.99609375  0 0 0 1 0"/>
    </filter>
    <linearGradient x1="0" y1="1" x2="0" y2="0" id="VOwrbJo6VqNidIjNCKBDH">
      <stop offset="0" stop-color="#00f2fe"/>
      <stop offset="1" stop-color="#4facfe"/>
    </linearGradient>
    <linearGradient x1="0" y1="1" x2="0" y2="0" id="c0bdc64a-24ec-4685-9ad6-f6aa5c50a3f9">
      <stop offset="0" stop-color="#00f2fe"/>
      <stop offset="1" stop-color="#4facfe"/>
    </linearGradient>
    <linearGradient x1="0" y1="1" x2="0" y2="0" id="45540fae-360d-4310-a66a-de5388b54312">
      <stop offset="0" stop-color="#00f2fe"/>
      <stop offset="1" stop-color="#4facfe"/>
    </linearGradient>
  </defs>
  <mask v-gra="im" id="ffb0f614-3cdf-4d7f-b847-54deeb6d1b96">
    <g class="iconsvg-imagesvg" filter="url(#539fc5df-97f9-4b43-ae21-f4f282223529)">
      <g>
        <rect fill="#00f2fe" fill-opacity="0" stroke-width="2" x="0" y="0" width="92.40000000000003" height="57.81504192216245" class="image-rect"/>
        <svg x="0" y="0" width="92.40000000000003" height="57.81504192216245" filtersec="colorsf3428305914" class="image-svg-svg primary" style="overflow: visible;">
          <svg xmlns="http://www.w3.org/2000/svg" viewBox="0 0 92.7 59.5">
            <path d="M90.7 29.8c0 3.5-2.8 6.3-6.3 6.3-5 0-10.3-6.3-10.3-6.3m16.6 0c0-3.5-2.8-6.3-6.3-6.3-5 0-10.3 6.3-10.3 6.3M2 29.8c0 3.5 2.8 6.3 6.3 6.3 5 0 10.3-6.3 10.3-6.3m0 0s-5.2-6.3-10.3-6.3c-3.5 0-6.3 2.8-6.3 6.3m44.4 27.7l27.8-27.8L46.4 2 18.6 29.8l27.8 27.7z" fill="none" stroke="#333" stroke-width="4" stroke-linejoin="round" stroke-miterlimit="10"/>
          </svg>
        </svg>
        <defs>
          <filter id="colors8910129531">
            <feColorMatrix type="matrix" values="0 0 0 0 0  0 0 0 0 0.9453125  0 0 0 0 0.9921875  0 0 0 1 0" class="icon-fecolormatrix"/>
          </filter>
        </defs>
      </g>
    </g>
  </mask>
  <g data-v-0dd9719b="" fill="#00f2fe" class="icon-text-wrapper icon-svg-group iconsvg" transform="matrix(1.2104370594024658, 0, 0, 1.2845200300216675, 6.866258144378662, 5.339590072631836)" style="">
    <g class="iconsvg-imagesvg" transform="matrix(1,0,0,1,0,3.1849594116210938)" mask="url(#ffb0f614-3cdf-4d7f-b847-54deeb6d1b96)" opacity="1">
      <g>
        <rect fill="#00f2fe" fill-opacity="0" stroke-width="2" x="0" y="0" width="92.40000000000003" height="57.81504192216245" class="image-rect"/>
        <svg filter="url(#colors8910129531)" x="0" y="0" width="92.40000000000003" height="57.81504192216245" filtersec="colorsf3428305914" class="image-svg-svg primary" style="overflow: visible;">
          <svg xmlns="http://www.w3.org/2000/svg" viewBox="0 0 92.7 59.5">
            <path d="M90.7 29.8c0 3.5-2.8 6.3-6.3 6.3-5 0-10.3-6.3-10.3-6.3m16.6 0c0-3.5-2.8-6.3-6.3-6.3-5 0-10.3 6.3-10.3 6.3M2 29.8c0 3.5 2.8 6.3 6.3 6.3 5 0 10.3-6.3 10.3-6.3m0 0s-5.2-6.3-10.3-6.3c-3.5 0-6.3 2.8-6.3 6.3m44.4 27.7l27.8-27.8L46.4 2 18.6 29.8l27.8 27.7z" fill="none" stroke="#333" stroke-width="4" stroke-linejoin="round" stroke-miterlimit="10"/>
          </svg>
        </svg>
        <defs>
          <filter id="colors8910129531">
            <feColorMatrix type="matrix" values="0 0 0 0 0  0 0 0 0 0.9453125  0 0 0 0 0.9921875  0 0 0 1 0" class="icon-fecolormatrix"/>
          </filter>
        </defs>
      </g>
      <rect v-gra="id" width="104.4000015258789" height="69.8150405883789" transform="translate(-6, -6)" style="pointer-events:none;" fill="url(#VOwrbJo6VqNidIjNCKBDH)"/>
    </g>
    <g transform="translate(98.6150016784668,0)">
      <g data-gra="path-name" fill-rule="" class="tp-name iconsvg-namesvg" transform="matrix(1,0,0,1,0,0)" fill="url(#c0bdc64a-24ec-4685-9ad6-f6aa5c50a3f9)" opacity="1">
        <g transform="scale(1)">
          <g>
            <path d="M3.64 0L49.58 0 49.58-5.17 8.81-5.17 8.81-46 3.64-46ZM83.01-5.23L60.81-5.23C59.46-5.23 58.32-6.37 58.32-7.72L58.32-37.01 53.09-37.01 53.09-7.72C53.09-3.5 56.59 0 60.81 0L83.01 0C87.28 0 90.8-3.47 90.8-7.72L90.8-37.01 85.57-37.01 85.57-7.72C85.57-6.37 84.36-5.23 83.01-5.23ZM96.16-29.29L96.16-7.72C96.16-3.47 99.67 0 103.94 0L133.87 0 133.87-49.13 128.64-49.13 128.64-37.01 103.94-37.01C99.67-37.01 96.16-33.54 96.16-29.29ZM101.45-7.72L101.45-29.29C101.45-30.64 102.59-31.78 103.94-31.78L126.15-31.78C127.5-31.78 128.64-30.64 128.64-29.29L128.64-7.72C128.64-6.37 127.5-5.23 126.15-5.23L103.94-5.23C102.59-5.23 101.45-6.37 101.45-7.72ZM139.1-29.29L139.1-7.72C139.1-3.5 142.6 0 146.82 0L169.03 0C173.3 0 176.81-3.47 176.81-7.72L176.81-29.29C176.81-33.54 173.3-37.01 169.03-37.01L146.82-37.01C142.6-37.01 139.1-33.51 139.1-29.29ZM171.51-29.29L171.51-7.72C171.51-6.37 170.38-5.23 169.03-5.23L146.82-5.23C145.47-5.23 144.33-6.37 144.33-7.72L144.33-29.29C144.33-30.64 145.47-31.78 146.82-31.78L169.03-31.78C170.37-31.78 171.51-30.64 171.51-29.29Z" transform="translate(-3.640000104904175, 49.130001068115234)"/>
          </g>
        </g>
      </g>
      <g data-gra="path-slogan" fill-rule="" class="tp-slogan iconsvg-slogansvg" fill="url(#45540fae-360d-4310-a66a-de5388b54312)" transform="matrix(1,0,0,1,5,55.130001068115234)" opacity="1">
        <rect x="0" height="1" y="3.580000400543213" width="22.78499984741211"/>
        <rect height="1" y="3.580000400543213" width="22.78499984741211" x="140.3849983215332"/>
        <g transform="translate(25.78499984741211,0)">
          <g transform="scale(1)">
            <path d="M1.10-1.72L0.50-1.02C0.85-0.66 1.26-0.38 1.73-0.17C2.20 0.04 2.71 0.14 3.26 0.14C3.68 0.14 4.05 0.09 4.38-0.03C4.71-0.15 4.99-0.31 5.22-0.51C5.45-0.71 5.63-0.95 5.75-1.22C5.88-1.50 5.94-1.79 5.94-2.10C5.94-2.39 5.90-2.64 5.81-2.86C5.73-3.08 5.62-3.27 5.47-3.44C5.33-3.60 5.16-3.75 4.96-3.87C4.76-3.99 4.54-4.10 4.32-4.20L3.20-4.68C3.04-4.74 2.89-4.81 2.74-4.89C2.58-4.97 2.44-5.05 2.32-5.15C2.19-5.25 2.09-5.37 2.01-5.50C1.93-5.63 1.90-5.80 1.90-5.99C1.90-6.35 2.03-6.63 2.30-6.83C2.57-7.04 2.92-7.14 3.36-7.14C3.73-7.14 4.06-7.07 4.35-6.94C4.64-6.81 4.91-6.63 5.15-6.40L5.69-7.04C5.41-7.33 5.07-7.57 4.67-7.75C4.27-7.93 3.83-8.02 3.36-8.02C3-8.02 2.67-7.96 2.37-7.86C2.07-7.76 1.81-7.61 1.59-7.42C1.37-7.23 1.20-7.01 1.07-6.76C0.95-6.50 0.89-6.22 0.89-5.93C0.89-5.64 0.94-5.39 1.03-5.17C1.13-4.95 1.25-4.76 1.40-4.60C1.56-4.44 1.73-4.30 1.92-4.19C2.11-4.08 2.30-3.98 2.48-3.90L3.61-3.41C3.80-3.32 3.97-3.24 4.13-3.16C4.29-3.08 4.43-2.99 4.54-2.89C4.66-2.79 4.75-2.67 4.82-2.53C4.89-2.39 4.92-2.22 4.92-2.02C4.92-1.63 4.78-1.32 4.49-1.09C4.20-0.85 3.80-0.73 3.28-0.73C2.87-0.73 2.47-0.82 2.09-1.00C1.71-1.18 1.38-1.42 1.10-1.72ZM7.49-7.87L7.49 0L8.48 0L8.48-7.87ZM10.64-7.87L10.64 0L11.57 0L11.57-4.33C11.57-4.68 11.55-5.07 11.52-5.50C11.49-5.92 11.46-6.31 11.44-6.66L11.48-6.66L12.11-4.91L13.63-0.79L14.20-0.79L15.71-4.91L16.34-6.66L16.39-6.66C16.36-6.31 16.33-5.92 16.30-5.50C16.27-5.07 16.26-4.68 16.26-4.33L16.26 0L17.21 0L17.21-7.87L16.03-7.87L14.52-3.65L13.97-2.04L13.92-2.04L13.34-3.65L11.82-7.87ZM19.37-7.87L19.37 0L20.36 0L20.36-3.12L21.78-3.12C22.21-3.12 22.61-3.17 22.96-3.27C23.32-3.37 23.62-3.52 23.88-3.72C24.14-3.92 24.33-4.17 24.47-4.48C24.61-4.78 24.68-5.14 24.68-5.56C24.68-5.99 24.61-6.35 24.47-6.65C24.33-6.94 24.14-7.18 23.89-7.36C23.63-7.54 23.33-7.67 22.97-7.75C22.61-7.83 22.21-7.87 21.78-7.87ZM21.66-3.94L20.36-3.94L20.36-7.07L21.66-7.07C22.34-7.07 22.85-6.96 23.18-6.74C23.52-6.52 23.69-6.12 23.69-5.56C23.69-5.00 23.52-4.59 23.19-4.33C22.86-4.07 22.35-3.94 21.66-3.94ZM26.28-7.87L26.28 0L30.72 0L30.72-0.85L27.28-0.85L27.28-7.87ZM32.11-7.87L32.11 0L33.11 0L33.11-7.87ZM35.27-7.87L35.27 0L36.26 0L36.26-3.53L39.26-3.53L39.26-4.37L36.26-4.37L36.26-7.03L39.80-7.03L39.80-7.87ZM42.47-3.05L42.47 0L43.48 0L43.48-3.05L45.84-7.87L44.80-7.87L43.79-5.65C43.67-5.36 43.54-5.08 43.40-4.80C43.27-4.52 43.13-4.23 43.00-3.94L42.95-3.94C42.81-4.23 42.68-4.52 42.56-4.80C42.44-5.08 42.32-5.36 42.19-5.65L41.17-7.87L40.10-7.87ZM49.33-7.87L49.33 0L50.33 0L50.33-7.87ZM54.12-7.03L54.12 0L55.13 0L55.13-7.03L57.50-7.03L57.50-7.87L51.74-7.87L51.74-7.03ZM61.37-1.72L60.77-1.02C61.11-0.66 61.52-0.38 61.99-0.17C62.46 0.04 62.98 0.14 63.53 0.14C63.94 0.14 64.32 0.09 64.64-0.03C64.97-0.15 65.25-0.31 65.48-0.51C65.72-0.71 65.89-0.95 66.02-1.22C66.14-1.50 66.20-1.79 66.20-2.10C66.20-2.39 66.16-2.64 66.08-2.86C65.99-3.08 65.88-3.27 65.74-3.44C65.59-3.60 65.42-3.75 65.22-3.87C65.02-3.99 64.81-4.10 64.58-4.20L63.47-4.68C63.31-4.74 63.15-4.81 63-4.89C62.85-4.97 62.71-5.05 62.58-5.15C62.45-5.25 62.35-5.37 62.27-5.50C62.20-5.63 62.16-5.80 62.16-5.99C62.16-6.35 62.29-6.63 62.56-6.83C62.83-7.04 63.18-7.14 63.62-7.14C63.99-7.14 64.32-7.07 64.61-6.94C64.91-6.81 65.17-6.63 65.41-6.40L65.95-7.04C65.67-7.33 65.33-7.57 64.93-7.75C64.53-7.93 64.10-8.02 63.62-8.02C63.26-8.02 62.93-7.96 62.63-7.86C62.33-7.76 62.07-7.61 61.85-7.42C61.63-7.23 61.46-7.01 61.34-6.76C61.21-6.50 61.15-6.22 61.15-5.93C61.15-5.64 61.20-5.39 61.30-5.17C61.39-4.95 61.52-4.76 61.67-4.60C61.82-4.44 61.99-4.30 62.18-4.19C62.38-4.08 62.56-3.98 62.75-3.90L63.88-3.41C64.06-3.32 64.23-3.24 64.39-3.16C64.55-3.08 64.69-2.99 64.81-2.89C64.92-2.79 65.01-2.67 65.08-2.53C65.15-2.39 65.18-2.22 65.18-2.02C65.18-1.63 65.04-1.32 64.75-1.09C64.46-0.85 64.06-0.73 63.54-0.73C63.13-0.73 62.74-0.82 62.36-1.00C61.98-1.18 61.65-1.42 61.37-1.72ZM70.66 0.14C71.15 0.14 71.61 0.05 72.02-0.14C72.43-0.34 72.79-0.61 73.09-0.97C73.39-1.32 73.62-1.75 73.78-2.26C73.95-2.77 74.03-3.34 74.03-3.97C74.03-4.60 73.95-5.16 73.78-5.66C73.62-6.16 73.39-6.58 73.09-6.93C72.79-7.28 72.43-7.55 72.02-7.73C71.61-7.92 71.15-8.02 70.66-8.02C70.16-8.02 69.71-7.92 69.29-7.74C68.88-7.56 68.53-7.29 68.23-6.94C67.94-6.59 67.71-6.17 67.54-5.67C67.38-5.17 67.30-4.60 67.30-3.97C67.30-3.34 67.38-2.77 67.54-2.26C67.71-1.75 67.94-1.32 68.23-0.97C68.53-0.61 68.88-0.34 69.29-0.14C69.71 0.05 70.16 0.14 70.66 0.14ZM70.66-0.73C70.30-0.73 69.99-0.81 69.70-0.96C69.42-1.11 69.17-1.33 68.97-1.61C68.77-1.90 68.61-2.24 68.50-2.63C68.38-3.03 68.33-3.48 68.33-3.97C68.33-4.46 68.38-4.90 68.50-5.29C68.61-5.68 68.77-6.02 68.97-6.29C69.17-6.56 69.42-6.77 69.70-6.92C69.99-7.07 70.30-7.14 70.66-7.14C71.01-7.14 71.33-7.07 71.61-6.92C71.89-6.77 72.14-6.56 72.34-6.29C72.55-6.02 72.70-5.68 72.82-5.29C72.93-4.90 72.98-4.46 72.98-3.97C72.98-3.48 72.93-3.03 72.82-2.63C72.70-2.24 72.55-1.90 72.34-1.61C72.14-1.33 71.89-1.11 71.61-0.96C71.33-0.81 71.01-0.73 70.66-0.73ZM75.72-7.87L75.72 0L80.16 0L80.16-0.85L76.72-0.85L76.72-7.87ZM81.17-7.87L81.17-3.25C81.17-2.62 81.24-2.09 81.38-1.66C81.53-1.22 81.73-0.87 81.98-0.61C82.23-0.34 82.53-0.15 82.88-0.03C83.23 0.09 83.60 0.14 84 0.14C84.40 0.14 84.77 0.09 85.12-0.03C85.46-0.15 85.76-0.34 86.01-0.61C86.26-0.87 86.46-1.22 86.60-1.66C86.75-2.09 86.82-2.62 86.82-3.25L86.82-7.87L85.86-7.87L85.86-3.23C85.86-2.76 85.81-2.36 85.72-2.04C85.62-1.72 85.49-1.46 85.32-1.27C85.15-1.08 84.96-0.94 84.73-0.86C84.51-0.77 84.26-0.73 84-0.73C83.74-0.73 83.50-0.77 83.28-0.86C83.06-0.94 82.86-1.08 82.70-1.27C82.53-1.46 82.40-1.72 82.31-2.04C82.21-2.36 82.16-2.76 82.16-3.23L82.16-7.87ZM90.58-7.03L90.58 0L91.58 0L91.58-7.03L93.96-7.03L93.96-7.87L88.20-7.87L88.20-7.03ZM95.38-7.87L95.38 0L96.37 0L96.37-7.87ZM101.44 0.14C101.93 0.14 102.39 0.05 102.80-0.14C103.21-0.34 103.57-0.61 103.87-0.97C104.17-1.32 104.40-1.75 104.56-2.26C104.73-2.77 104.81-3.34 104.81-3.97C104.81-4.60 104.73-5.16 104.56-5.66C104.40-6.16 104.17-6.58 103.87-6.93C103.57-7.28 103.21-7.55 102.80-7.73C102.39-7.92 101.93-8.02 101.44-8.02C100.94-8.02 100.49-7.92 100.07-7.74C99.66-7.56 99.31-7.29 99.01-6.94C98.72-6.59 98.49-6.17 98.32-5.67C98.16-5.17 98.08-4.60 98.08-3.97C98.08-3.34 98.16-2.77 98.32-2.26C98.49-1.75 98.72-1.32 99.01-0.97C99.31-0.61 99.66-0.34 100.07-0.14C100.49 0.05 100.94 0.14 101.44 0.14ZM101.44-0.73C101.08-0.73 100.77-0.81 100.48-0.96C100.20-1.11 99.95-1.33 99.75-1.61C99.55-1.90 99.39-2.24 99.28-2.63C99.16-3.03 99.11-3.48 99.11-3.97C99.11-4.46 99.16-4.90 99.28-5.29C99.39-5.68 99.55-6.02 99.75-6.29C99.95-6.56 100.20-6.77 100.48-6.92C100.77-7.07 101.08-7.14 101.44-7.14C101.79-7.14 102.11-7.07 102.39-6.92C102.67-6.77 102.92-6.56 103.12-6.29C103.33-6.02 103.48-5.68 103.60-5.29C103.71-4.90 103.76-4.46 103.76-3.97C103.76-3.48 103.71-3.03 103.60-2.63C103.48-2.24 103.33-1.90 103.12-1.61C102.92-1.33 102.67-1.11 102.39-0.96C102.11-0.81 101.79-0.73 101.44-0.73ZM106.50-7.87L106.50 0L107.45 0L107.45-4.12C107.45-4.53 107.43-4.95 107.41-5.36C107.38-5.77 107.35-6.18 107.32-6.58L107.36-6.58L108.22-4.96L111.07 0L112.10 0L112.10-7.87L111.16-7.87L111.16-3.80C111.16-3.39 111.17-2.97 111.20-2.54C111.23-2.11 111.25-1.70 111.28-1.30L111.23-1.30L110.38-2.93L107.53-7.87Z" transform="translate(-0.504, 8.016)"/>
          </g>
        </g>
      </g>
    </g>
  </g>
</svg>